<svg width="149" height="33" viewBox="0 0 149 33" fill="none" xmlns="http://www.w3.org/2000/svg">
<path d="M123.944 31.6436V0.642334H127.851L145.044 24.6527L143.193 24.944V0.642334H148.005V31.6436H144.098L127.028 7.46678L128.797 7.13388V31.6436H123.944Z" fill="#292929"/>
<path d="M99.6521 31.6436V0.642334H119.847V5.01165H104.506V13.9167H119.025V18.286H104.506V27.2743H119.847V31.6436H99.6521Z" fill="#292929"/>
<path d="M69.6567 31.6436V0.642334H73.5642L90.757 24.6527L88.9061 24.944V0.642334H93.7184V31.6436H89.811L72.7416 7.46678L74.5102 7.13388V31.6436H69.6567Z" fill="#292929"/>
<path d="M48.8473 32.1431C46.6262 32.1431 44.556 31.7408 42.6365 30.9363C40.7445 30.1318 39.0718 29.0083 37.6185 27.5657C36.1927 26.1231 35.0684 24.4309 34.2458 22.489C33.4506 20.5471 33.053 18.4248 33.053 16.1223C33.053 13.8197 33.4506 11.6975 34.2458 9.75555C35.0684 7.78589 36.1927 6.09365 37.6185 4.67883C39.0444 3.23626 40.7171 2.12659 42.6365 1.34983C44.556 0.54532 46.6262 0.143066 48.8473 0.143066C51.0958 0.143066 53.1661 0.54532 55.0581 1.34983C56.9776 2.12659 58.6502 3.23626 60.0761 4.67883C61.5294 6.12139 62.6537 7.81363 63.4489 9.75555C64.2441 11.6975 64.6417 13.8197 64.6417 16.1223C64.6417 18.4248 64.2304 20.5471 63.4077 22.489C62.6125 24.4309 61.502 26.1231 60.0761 27.5657C58.6502 29.0083 56.9776 30.1318 55.0581 30.9363C53.1387 31.7408 51.0684 32.1431 48.8473 32.1431ZM48.8473 27.6489C50.4377 27.6489 51.891 27.3576 53.2072 26.7751C54.5508 26.1925 55.7162 25.388 56.7034 24.3615C57.6905 23.3073 58.4583 22.0867 59.0067 20.6996C59.5551 19.2848 59.8293 17.759 59.8293 16.1223C59.8293 14.4855 59.5551 12.9736 59.0067 11.5865C58.4583 10.1994 57.6905 8.97878 56.7034 7.9246C55.7162 6.87042 54.5508 6.05204 53.2072 5.46947C51.891 4.88689 50.4377 4.5956 48.8473 4.5956C47.2569 4.5956 45.7899 4.88689 44.4463 5.46947C43.1301 6.05204 41.9784 6.87042 40.9913 7.9246C40.0041 8.97878 39.2364 10.1994 38.6879 11.5865C38.1669 12.9736 37.9064 14.4855 37.9064 16.1223C37.9064 17.759 38.1669 19.2848 38.6879 20.6996C39.2364 22.0867 40.0041 23.3073 40.9913 24.3615C41.9784 25.388 43.1438 26.1925 44.4874 26.7751C45.831 27.3576 47.2843 27.6489 48.8473 27.6489Z" fill="#292929"/>
<path d="M15.2648 32.1431C13.0985 32.1431 11.0831 31.7408 9.2185 30.9363C7.38131 30.1318 5.76348 29.0221 4.36503 27.6073C2.99399 26.1647 1.92458 24.4725 1.1568 22.5306C0.389017 20.5887 0.00512695 18.4526 0.00512695 16.1223C0.00512695 13.8197 0.375307 11.6975 1.11567 9.75555C1.88345 7.78589 2.95286 6.09365 4.32389 4.67883C5.69493 3.23626 7.29905 2.12659 9.13624 1.34983C10.9734 0.54532 12.9889 0.143066 15.1825 0.143066C17.3487 0.143066 19.2819 0.517579 20.982 1.2666C22.7095 2.01563 24.1628 3.00046 25.3419 4.22109C26.521 5.41398 27.371 6.71784 27.892 8.13266L23.5733 10.2549C22.9426 8.56266 21.9006 7.20332 20.4473 6.17688C18.994 5.12269 17.2391 4.5956 15.1825 4.5956C13.1534 4.5956 11.3573 5.08108 9.79433 6.05204C8.23135 7.023 7.01113 8.36847 6.13366 10.0885C5.28362 11.8084 4.8586 13.8197 4.8586 16.1223C4.8586 18.4248 5.29733 20.45 6.1748 22.1977C7.07968 23.9177 8.31361 25.2631 9.8766 26.2341C11.4396 27.1773 13.2356 27.6489 15.2648 27.6489C16.9649 27.6489 18.5141 27.3021 19.9126 26.6086C21.3385 25.8873 22.4764 24.8886 23.3265 23.6125C24.1765 22.3086 24.6015 20.7967 24.6015 19.0767V16.9545L26.7815 18.9519H15.1825V14.7907H29.4139V17.7035C29.4139 19.9783 29.03 22.0174 28.2622 23.8206C27.4944 25.596 26.4524 27.108 25.1362 28.3563C23.82 29.6047 22.3119 30.5479 20.6118 31.186C18.9117 31.824 17.1294 32.1431 15.2648 32.1431Z" fill="#292929"/>
</svg>
