<svg width="24" height="24" viewBox="0 0 24 24" fill="none" xmlns="http://www.w3.org/2000/svg">
<mask id="mask0_312_29979" style="mask-type:alpha" maskUnits="userSpaceOnUse" x="0" y="0" width="24" height="24">
<rect width="24" height="24" fill="#D9D9D9"/>
</mask>
<g mask="url(#mask0_312_29979)">
<path fill-rule="evenodd" clip-rule="evenodd" d="M11.5768 8.66829C11.7488 8.676 12.1631 8.75335 12.2726 9.33887C12.3586 9.78588 12.2099 10.5338 11.9129 11.397C12.4756 12.2062 13.2575 13.0849 14.0313 13.7554C15.2345 13.7015 16.2344 13.771 16.6566 14.0329C16.9613 14.2178 17.0708 14.5103 16.9536 14.8109C16.7348 15.3658 16.2425 15.5818 15.5938 15.4123C15.1015 15.2812 14.484 14.9039 13.8433 14.3877C13.7808 14.3877 13.7101 14.3946 13.6398 14.4023C12.4286 14.4948 11.2018 14.7112 10.1624 14.9655C9.545 15.9058 8.88809 16.6456 8.31755 16.8999C8.16128 16.9692 8.01271 17 7.86426 17L7.8724 16.9927C7.59885 16.9927 7.35603 16.8686 7.16846 16.6297H7.1766C6.91884 16.2907 6.94216 15.9051 7.25472 15.5661C7.66901 15.1192 8.63806 14.7187 9.81006 14.4105C10.3727 13.5166 10.889 12.4454 11.2407 11.5052C10.7094 10.6961 10.3891 9.93293 10.4749 9.40885C10.514 9.16993 10.6937 8.62976 11.5768 8.66829ZM9.24772 15.2194C8.37284 15.5044 7.76353 15.8128 7.63802 16.0902C7.6224 16.1287 7.6066 16.1752 7.66895 16.2521V16.2603C7.74709 16.3604 7.8333 16.4373 8.06771 16.3294C8.42719 16.1752 8.83355 15.7665 9.24772 15.2194ZM14.797 14.3413C15.1408 14.5724 15.4612 14.7338 15.7581 14.8109C16.1801 14.9187 16.3055 14.7651 16.3758 14.5879C16.3289 14.5108 15.9302 14.3413 14.8206 14.3413H14.797ZM11.6549 12.0985C11.3736 12.7998 11.0138 13.5321 10.623 14.2103C11.4593 14.033 12.3587 13.8943 13.2028 13.8172C12.6479 13.2932 12.1082 12.6996 11.6549 12.0985ZM11.4751 9.28516C11.1238 9.28518 11.1001 9.42371 11.0845 9.50081C11.0376 9.77825 11.2014 10.2178 11.4906 10.7264C11.6469 10.1869 11.7096 9.73227 11.6549 9.4471C11.6238 9.28589 11.5772 9.28516 11.5459 9.28516H11.4751Z" fill="#171717"/>
<path fill-rule="evenodd" clip-rule="evenodd" d="M17.1091 4.60905L19.5 7H19.4691L19.5 7.03174V18.3997C19.5 20.3836 17.9055 21.9998 15.9478 22H8.05225C6.09453 21.9998 4.5 20.3836 4.5 18.3997V5.60026C4.5 3.61639 6.09453 2.00021 8.05225 2H14.5342L17.1091 4.60905ZM8.05225 2.79997C6.52874 2.80018 5.28939 4.05639 5.28939 5.60026V18.3997C5.28939 19.9436 6.52874 21.1998 8.05225 21.2H15.9478C17.4713 21.1998 18.7106 19.9436 18.7106 18.3997V7.36784L18.3477 7H16.1211C15.2263 6.9999 14.5001 6.27371 14.5 5.37891V3.10026L14.203 2.79997H8.05225ZM15.1486 5.3724C15.1487 5.91053 15.583 6.34479 16.1211 6.34489H17.7015L15.1486 3.75781V5.3724Z" fill="#171717"/>
</g>
</svg>
